<svg xmlns="http://www.w3.org/2000/svg" width="500" height="500" viewBox="0 0 2000 2000">
  <defs>
    <style>
      .cls-1, .cls-15, .cls-18 {
        fill: #d9f2f7;
      }

      .cls-1, .cls-12, .cls-13, .cls-14, .cls-15, .cls-16 {
        stroke: #223f51;
      }

      .cls-1, .cls-12 {
        stroke-width: 86.55px;
      }

      .cls-2 {
        fill: #fff;
      }

      .cls-10, .cls-11, .cls-13, .cls-14, .cls-15, .cls-16, .cls-17, .cls-18, .cls-2, .cls-3, .cls-4, .cls-5, .cls-6, .cls-7, .cls-8, .cls-9 {
        fill-rule: evenodd;
      }

      .cls-4 {
        fill: #007a3d;
      }

      .cls-5 {
        fill: #ce1126;
      }

      .cls-6 {
        fill: #cd1127;
      }

      .cls-7 {
        fill: #017b3d;
      }

      .cls-8 {
        fill: #009645;
      }

      .cls-9 {
        fill: #ed2e38;
      }

      .cls-10 {
        fill: #ed1f27;
      }

      .cls-11 {
        fill: #049f48;
      }

      .cls-12, .cls-16 {
        fill: none;
      }

      .cls-13 {
        fill: #abbfc3;
      }

      .cls-13, .cls-14 {
        stroke-width: 50px;
      }

      .cls-14 {
        fill: #b0c6cb;
      }

      .cls-15 {
        stroke-width: 56px;
      }

      .cls-16 {
        stroke-width: 46px;
      }

      .cls-17 {
        fill: #2f4c5c;
      }

      .cls-19 {
        font-size: 190px;
        fill: #c4b144;
        text-anchor: middle;
        font-family: "Noto Kufi Arabic";
        font-weight: 700;
      }
    </style>
  </defs>
  <circle id="Ellipse_1_copy" data-name="Ellipse 1 copy" class="cls-1" cx="999.998" cy="999.998" r="956.592"/>
  <g id="jor">
    <path class="cls-2" d="M999,1285v347H380V1262"/>
    <path class="cls-3" d="M80,1000H999v307H607l-194-54L88,1048Z"/>
    <path class="cls-4" d="M347,1746s147.048-81.94,148-82,144-50,144-50l2-1h393l2,350-257-11-235-73-154-93"/>
    <path class="cls-5" d="M335,1737s16.305,7.98,32.412,13.82C463.7,1702.84,951,1460,951,1460L80,1024l13,372,47,88,83,119,70,84Z"/>
    <path class="cls-2" d="M290,1480l-3,38,29-25,29,25-3-38,37-6-31-22,19-33-37,11-14-36-14,36-37-11,19,33-32,22Z"/>
  </g>
  <g id="syr">
    <path class="cls-2" d="M1000,1614V1288l895-22-78,218-123,178Z"/>
    <path class="cls-3" d="M1000,1612h696s-22.93,45.99-23,47-156.2,126.77-157,127-320,130-320,130l-192,21-4-23V1612Z"/>
    <path class="cls-6" d="M1000,1000v306h923l31-276-27-28-11-2H1000Z"/>
    <path class="cls-7" d="M1164,1532l55-37,53,37-23-63,55-37h-67l-19-63-18,62h-69l55,38Z"/>
    <path id="Shape_49_copy" data-name="Shape 49 copy" class="cls-7" d="M1623,1532l55-37,53,37-23-63,55-37h-67l-19-63-18,62h-69l55,38Z"/>
  </g>
  <g id="pal">
    <path class="cls-8" d="M1940,1000H1000l252-304,44-4,9,1h557l32,1,14,49Z"/>
    <path class="cls-2" d="M1252,723h660l-44-119L1767,372l-308-12-219-1Z"/>
    <path class="cls-3" d="M1000,81h370l124,59,64,48,202,181,14,16-10,2H1295L1110,274Z"/>
    <path class="cls-3" d="M921,157"/>
    <path class="cls-9" d="M1000,1000s-80-1.536-80-30c0-164.4-29-779.068-29-900,0-14.727,109,11,109,11l459,459Z"/>
  </g>
  <g id="leb">
    <path class="cls-2" d="M1000,265V814L63,839,61,696l75-150,81-119,67-82,123-87Z"/>
    <path class="cls-10" d="M75,1000h925V770H113L65,818,52,874Z"/>
    <path class="cls-10" d="M1000,310V83L837,82,650,122,491,196,388,295l12,16Z"/>
    <g>
      <path class="cls-11" d="M453,767s10.855,0.944,13-2,15-6,15-6,10.49-3.131,14-3,13-2,13-2,19.941-7.024,23-13,28.979-15.036,33-14,12,1,12,1,14.011,3.544,15,5,8,10,8,10l15,12,7,4s4.064,3.795,7,3,5-6,5-6,1.5-9.3,4-9,14,0,14,0,8.467,2.354,11,4a66.929,66.929,0,0,1,7,6s9.29,8.659,16,9,14,1,14,1v-5l-36-32s-18.776-6.15-19-46,1-33,1-33,7.141-16.566,25-7,30.692,9.5,43,9,27,0,27,0,37.58,7.969,49,17,18.818,15.051,24,16,9-3,9-3,8.008-5.348-7-16-13.625-11.742-37-25-31-19-31-19-15.765-9.783-3-17,17.7-6.125,27-1,30.316,12.623,36,6c-26.565-21.884-25-22-25-22s-38.186-38.067-59-33c-11.334-1.549-.591-12.958,0-10s34-3,34-3l30-6s-38.179-14.729-52-18-16-5-16-5-8.554-10.083,8-9,33,4,33,4l11-1s-65.4-44.9-69-49-22-17-22-17l-8-5s-17.588-7.58,3-14c16.836,3.763,17,6,17,6l13,2h19s-34.869-20.058-37-23-7.62-8.339-3-11a103.694,103.694,0,0,0,15,1s6.589-.185,4-4-54.742-38.842-70-36-46.625-40.712-43-46-13.821,27.35-26,32c-11.509,10.813-27.733,23.9-29,26s2.96,2.439,5,2,14-3,14-3,4.708,2.518-12,15c-19.119,10.339-31.165,18.08-37,26,14.4-.253,17,0,17,0s10.93,8.021-2,14-12.4-2.155-27,20c-4.554,6.479-34.944,22.868-44,27s-13.587,15.819,0,15c13.051-2.159,20-4,20-4,7.79-1.911,14.831-2.36,16,12,0.9,7.929-3.394,17.637-19,30-17.749,5.664-30.114,9.941-38,21-11.1,10.523-25,22-25,22s7.733,15.65,35-2c9.447-4.653,19.135-11.559,23,0,2.123,9.281,5.1,17.157-12,23-18.167,11.47-43.493,29.55-52,39s-15.748,12.272-27,12c4.291,6.427,8.3,9.687,14,10s55.011-14.931,67-26c12.123-5.442,18-6,18-6s22.031,6.615,6,20-64,26-64,26-14.183,3.7-16,7,5.677,12.014,30,10c23.251-6.436,61.194-21.744,65-23s23.136-16.4,40-3c10.165,10.587,13.914,19.962,4,41s-28.312,38.577-37,42c-8.956,4.9-30.907,12.5-34,16S453,767,453,767Z"/>
      <path class="cls-2" d="M715,588s10.138-10.981,20-5,4.812,8.57,3,13-9,8-9,8-10.8,1.223-11-1-5.922,5.4-10-7C710.861,589.848,715,588,715,588Z"/>
      <path class="cls-2" d="M672,577s18.184-8.488,25-2-4.919,14.487-6,15C669.81,600.059,655.014,585.3,672,577Z"/>
      <path class="cls-2" d="M587,623s-6.264-17.552-6-19,3.829-7.958,8-7,9.953,1.916,11,8c-2.891,5.709-12,18-12,18"/>
      <path class="cls-2" d="M554,604l5-1s7.894,2.978,8,6-0.137,8.7-1,9-6.605.2-8-5a36.7,36.7,0,0,0-3-8"/>
      <path class="cls-2" d="M540,609s-0.044-.254-0.138-0.7c-0.651-3.078-3.685-15.293-10.862-15.3-8.211-.011-6,8-6,8l4,11s3.521,14.353,10,7,3-6,3-6v-4Z"/>
      <path class="cls-2" d="M469,556s-6.237-12.629,13-11c19.346-.989,22,0,22,0s21.237,0.513,4,14c-18.874,6.723-12.653,6.186-18,7s-15.087,6.025-19-4S469,556,469,556Z"/>
      <path class="cls-2" d="M545,528s-4.825-7.244-1-8a11.284,11.284,0,0,1,7,1s9.21,4.918,7,9a4.787,4.787,0,0,1-6,1Z"/>
      <path class="cls-2" d="M574,521s-0.193-7.771,4-7c4.3-.429,6,4,6,4s-0.956,9.846-4,8C576.083,526.663,574.139,525.023,574,521Z"/>
      <path class="cls-2" d="M594,533a13.929,13.929,0,0,1,6-12c6.087,2.666,9.474,8.791,10,11s2.781,7.873,2,10-8.908,4.057-14-1S594,533,594,533Z"/>
      <path class="cls-2" d="M617,539s0.949-8.111,4-6a6.14,6.14,0,0,1,4,4s2.105,4.653,2,7c-1.909,2.486-4.543,4.416-6,3s-4-8-4-8"/>
      <path class="cls-2" d="M496,469a16.2,16.2,0,0,1,13,6c5.735,6.717,10.379,11.54,2,15s-13.238.036-16-4-7.98-8.288-5-15C494.834,468.367,496,469,496,469Z"/>
      <path class="cls-2" d="M520,473s-2.9-12.626,11-9c7.1,0.165,11.79-2.4,10,5-5.622,9.256-2.14,9.305-10,12s-6.48,2.14-9,0c-0.562-4.1-2-4-2-4v-4Z"/>
      <path class="cls-2" d="M579,460s12.008-3.832,14-5a10.474,10.474,0,0,1,5-1s9.053,3.057,0,10c-9.478,2.687-10.988.889-13,0A43.793,43.793,0,0,1,579,460Z"/>
      <path class="cls-2" d="M610,465s7.342-10.747,8-11,7.6-2.685,8,3-1.212,10.143-3,10-4.507,2.611-8,2a7.591,7.591,0,0,1-6-2Z"/>
      <path class="cls-2" d="M637,471a12.619,12.619,0,0,1,2.847-5.8c2.035-2.277,5.459-4.148,11.153-3.2,11.075-.081,14.838,2.842,15,9s-3.647,10.309-8,11a113.608,113.608,0,0,0-12-2,30.961,30.961,0,0,1-6-2l-3-4v-3"/>
      <path class="cls-2" d="M632,417s1.864-9.629,11-9c4,0.526,5.18,3.253,5,6s-3.8,8.881-6,9-8.611.2-9-2A30.516,30.516,0,0,0,632,417Z"/>
      <path class="cls-2" d="M616,417s-0.178.006-.484,0c-0.507,0-1.366-.029-2.351-0.137-2.407-.265-5.566-1.023-6.181-3.166A3.206,3.206,0,0,1,607,412c1.358-5.323,4.42-4.985,7-5s6.227-.918,8,2a4.275,4.275,0,0,1,0,5l-3,3h-3"/>
      <path class="cls-2" d="M571,421l9-9s9.355-2.617,10-3,4.829-.549,6,1,3.272,6.621,1,10a22.835,22.835,0,0,1-8,4c-1.287.356-8.279,0.782-10,2s-6.869.527-7,0a9.432,9.432,0,0,0-2-2Z"/>
      <path class="cls-2" d="M536,440l6-8,11-7s3.833-5.04,8,0c2.531,4.137,1.14,7.372-2,11s-14,10.67-17,12-6.2-1.72-7-2-1-3-1-3Z"/>
      <path class="cls-2" d="M534,407v-5s3.627-4.374,8-4c4.3,0.748,4.15,4.178,4,5s-2.7,5.805-4,6-7,4-7,4Z"/>
      <path class="cls-2" d="M677,504l2-3s4.667-4.4,10-3c4.771,2.524,8.045,5.047,8,8-0.607,3.515-3.4,7.835-8,9-5.812-.708-10.006-1.639-11-3a22.046,22.046,0,0,1-2-5Z"/>
      <path class="cls-2" d="M837,466"/>
    </g>
  </g>
  <circle class="cls-12" cx="999.998" cy="999.998" r="956.592"/>
  <g>
    <g id="Bookpen">
      <path class="cls-13" d="M589,1513H769c104.454,0,170.056,97,237,97,72.77,0,125.51-99,220-99,71.92,0,188,3,188,3s60-17.8,60-85V641H582Z"/>
      <path class="cls-14" d="M2083,744"/>
      <path class="cls-15" d="M1368,505v903c-190,0-228.29,7.29-364,143-108.571-108.57-141-143-391-143V502c71.927,0,237.154-38.264,388,91C1124.81,469.187,1312.18,505,1368,505Z"/>
      <path class="cls-16" d="M608,604c107.611-12.7,270.56-27.116,391.192,93.515C1117.29,579.417,1245.24,600.19,1369,604"/>
    </g>
    <g>
      <path class="cls-17" d="M496.378,1477.39V437.985h144V1477.39l-72,183.6Z"/>
      <path id="Shape_7_copy" data-name="Shape 7 copy" class="cls-17" d="M496.642,444.005H640.373S643.1,344,565.778,344,496.642,444.005,496.642,444.005Z"/>
      <path class="cls-18" d="M528.378,429h79s1.5-53-41-53S528.378,429,528.378,429Z"/>
      <path class="cls-18" d="M613,483V463H524v20h89Z"/>
      <path id="Shape_8_copy" data-name="Shape 8 copy" class="cls-18" d="M613,516V496H524v20h89Z"/>
      <path id="Shape_8_copy_2" data-name="Shape 8 copy 2" class="cls-18" d="M613,549V529H524v20h89Z"/>
      <path class="cls-18" d="M542.378,1437.03h50V587.971h-50V1437.03Z"/>
      <path class="cls-18" d="M784.378,1568"/>
      <path class="cls-18" d="M623.378,1476s-16.606,42.98-25,65c-19.229-19.23-42.221-17.78-60,0l-28-65c23.934,5.5,30,4,30,4s20.441-11,28-11,20.914,5.53,30,10S623.378,1476,623.378,1476Z"/>
    </g>
    <g id="Writing">
      <text id="_العربية" data-name=" العربية" class="cls-19" x="959.604" y="1231.238"><tspan x="959.604"> العربية</tspan></text>
      <text id="متعلمو" class="cls-19" x="989.228" y="952.244"><tspan x="989.228">متعلمو</tspan></text>
    </g>
  </g>
</svg>
